# xmcd
#
# Track frame offsets:
#	182
#	19030
#	42490
#
# Disc length: 859 seconds
#
# Revision: 0
# Processed by: cddbd v1.5.2PL0 Copyright (c) Steve Scherf et al.
# Submitted via: audiograbber 1.83.01
#
DISCID=1d035903
DTITLE=Color Me Badd - sexual capacity
DYEAR=1996
DGENRE=Black
TTITLE0=sexual capacity (83.5 bpm)
TTITLE1=ain't nobody goin' home
TTITLE2=from the back (89 bpm)
EXTD=
EXTT0=
EXTT1=
EXTT2=
PLAYORDER=
